<svg version="1.1" xmlns="http://www.w3.org/2000/svg" xmlns:xlink="http://www.w3.org/1999/xlink" x="0px" y="0px"
	 viewBox="0 0 1081 500" enable-background="new 0 0 1081 500" xml:space="preserve">
<g id="Full_text">
	<g id="Layer_5">
		<g>
			<g>
				<polygon fill="#48929B" points="76.7949219,350 76.7949219,350 163.3974609,400 250,350 336.6025391,400 423.2050781,350 
					423.2050781,350 250,250 				"/>
				<polygon fill="#C6C2B6" points="423.2050781,350 423.2050781,150 250,50 250,250 				"/>
				<polygon fill="#86ABA5" points="76.7949219,350 250,250 250,50 76.7949219,150 				"/>
			</g>
			<polygon fill="none" points="76.7949219,150 250,50 423.2050781,150 423.2050781,350 250,450 76.7949219,350 			"/>
		</g>
	</g>
	<g id="Layer_7">
		<g>
			<path fill="#3D4C51" d="M509.7480469,319V179.8652344h8.4433594V319H509.7480469z"/>
			<path fill="#3D4C51" d="M610.3369141,319v-17.0703125h-0.3671875
				c-6.5478516,12.9101562-16.6435547,19.3652344-30.2871094,19.3652344c-22.2099609,0-33.3154297-13.9804688-33.3154297-41.9433594
				v-54.3320312h8.5351562v52.2216797c0,12.7265625,2.0957031,21.9667969,6.2871094,27.7167969
				c4.1904297,5.7519531,10.7841797,8.6269531,19.7783203,8.6269531c8.7490234,0,15.8310547-3.2119141,21.2460938-9.6367188
				c5.4150391-6.4238281,8.1230469-14.9892578,8.1230469-25.6972656v-53.2314453h8.4433594V319H610.3369141z"/>
			<path fill="#3D4C51" d="M766.7255859,319v-56.5351562c0-11.8076172-1.8515625-20.0996094-5.5527344-24.8720703
				c-3.703125-4.7724609-9.5605469-7.1582031-17.5751953-7.1582031c-7.4042969,0-13.7988281,3.1816406-19.1816406,9.5449219
				c-5.3847656,6.3642578-8.0771484,14.3486328-8.0771484,23.9541016V319h-8.4433594v-57.1777344
				c0-20.9248047-7.9541016-31.3876953-23.8623047-31.3876953c-7.6484375,0-14.0117188,3.1972656-19.0898438,9.5908203
				c-5.0791016,6.3945312-7.6171875,14.6699219-7.6171875,24.8261719V319h-8.4433594v-93.9804688h8.4433594v15.6025391h0.3671875
				c6.5458984-11.9316406,16.1210938-17.8974609,28.7265625-17.8974609c6.8515625,0,12.7109375,1.9736328,17.5751953,5.9199219
				s8.1523438,9.1318359,9.8662109,15.5566406c2.9365234-6.7919922,7.1425781-12.0693359,12.6191406-15.8320312
				c5.4755859-3.7626953,11.4267578-5.6445312,17.8515625-5.6445312c20.5576172,0,30.8369141,12.7275391,30.8369141,38.1796875V319
				H766.7255859z"/>
			<path fill="#3D4C51" d="M807.4755859,201.3408203c-1.8359375,0-3.4570312-0.6728516-4.8642578-2.0195312
				C801.203125,197.9765625,800.5,196.2626953,800.5,194.1826172c0-2.0195312,0.71875-3.65625,2.1572266-4.9101562
				c1.4365234-1.2539062,3.0429688-1.8818359,4.8183594-1.8818359c1.8955078,0,3.5634766,0.6123047,5.0019531,1.8359375
				c1.4365234,1.2246094,2.15625,2.8759766,2.15625,4.9560547c0,1.9580078-0.7041016,3.640625-2.1103516,5.046875
				C811.1152344,200.6376953,809.4326172,201.3408203,807.4755859,201.3408203z M803.3457031,319v-93.9804688h8.4433594V319
				H803.3457031z"/>
			<path fill="#3D4C51" d="M905.7685547,319v-54.6992188c0-22.578125-8.1376953-33.8662109-24.4130859-33.8662109
				c-9.0556641,0-16.4892578,3.3193359-22.3017578,9.9580078c-5.8134766,6.6396484-8.71875,14.8535156-8.71875,24.6416016V319
				h-8.4433594v-93.9804688h8.4433594v17.0703125h0.3671875c6.8515625-12.9091797,17.5595703-19.3652344,32.1220703-19.3652344
				c10.15625,0,17.9267578,3.3818359,23.3115234,10.1416016c5.3837891,6.7617188,8.0761719,16.4140625,8.0761719,28.9560547V319
				H905.7685547z"/>
			<path fill="#3D4C51" d="M944.4990234,272.3769531c0,12.9101562,2.9833984,23.0058594,8.9482422,30.2861328
				c5.9658203,7.2822266,14.1484375,10.921875,24.5507812,10.921875c10.5234375,0,20.8027344-3.8847656,30.8378906-11.6552734
				v8.9941406c-9.7285156,6.9150391-20.5898438,10.3710938-32.5810547,10.3710938
				c-12.1152344,0-21.9052734-4.34375-29.3691406-13.0332031c-7.4658203-8.6875-11.1972656-20.9550781-11.1972656-36.8027344
				c0-13.7050781,3.9003906-25.2529297,11.7021484-34.6464844c7.8007812-9.390625,17.9423828-14.0878906,30.4238281-14.0878906
				c11.6865234,0,20.6503906,4.1005859,26.8916016,12.2988281c6.2402344,8.1992188,9.3613281,19.3964844,9.3613281,33.5908203
				v3.7626953H944.4990234z M1005.2558594,264.6679688c-0.3662109-10.8300781-2.9677734-19.2421875-7.8007812-25.2392578
				c-4.8339844-5.9960938-11.5039062-8.9941406-20.0078125-8.9941406c-8.8105469,0-16.1064453,2.9521484-21.8886719,8.8564453
				c-5.7822266,5.9052734-9.3466797,14.3632812-10.6923828,25.3769531H1005.2558594z"/>
		</g>
	</g>
</g>
</svg>
